<?xml version="1.0" encoding="UTF-8" standalone="no"?>
<svg xmlns="http://www.w3.org/2000/svg" xmlns:sketch="http://www.bohemiancoding.com/sketch/ns" version="1.1" width="100" height="100"><svg xmlns:xlink="http://www.w3.org/1999/xlink" xmlns:sketch="http://www.bohemiancoding.com/sketch/ns" width="100" height="100" viewBox="0 0 104 104" version="1.1" x="0" y="0">
    <!-- Generator: Sketch 3.2.2 (9983) - http://www.bohemiancoding.com/sketch -->
    <title>icon-contao-partner</title>
    <desc>Created with Sketch.</desc>
    <defs/>
    <g id="icons" stroke="none" stroke-width="1" fill="none" fill-rule="evenodd" sketch:type="MSPage">
        <g id="icon-contao-partner" sketch:type="MSArtboardGroup" fill="#FFFFFF">
            <g id="Group-12" sketch:type="MSLayerGroup" transform="translate(1.000000, 1.000000)">
                <circle id="Oval-322" stroke="#A6ACB3" sketch:type="MSShapeGroup" cx="51" cy="51" r="51"/>
                <circle id="Oval-321" stroke="#979797" sketch:type="MSShapeGroup" cx="71.9111111" cy="31" r="11.2"/>
                <circle id="Oval-321" stroke="#979797" sketch:type="MSShapeGroup" cx="31.9111111" cy="31" r="11.2"/>
                <circle id="Oval-323" stroke="#979797" sketch:type="MSShapeGroup" cx="71.9111111" cy="71" r="11.2"/>
                <circle id="Oval-322" stroke="#979797" sketch:type="MSShapeGroup" cx="31.9111111" cy="71" r="11.2"/>
                <circle id="Oval-320" stroke="#979797" sketch:type="MSShapeGroup" cx="52" cy="51" r="31.2"/>
                <path d="M46.4,19.8 C46.4,19.8 50.1390625,19.3841797 52.0085937,19.3841797 C53.8723958,19.3841797 57.6,19.8 57.6,19.8 L57.6,82.2 C57.6,82.2 53.9390625,82.6609375 52.0085937,82.6609375 C50.2057292,82.6609375 46.4,82.2 46.4,82.2 L46.4,19.8 Z" id="Rectangle-1021" stroke="#F58426" sketch:type="MSShapeGroup"/>
                <path d="M83.2225586,45.0963542 C83.2225586,45.0963542 83.6383789,48.7892554 83.6383789,50.635706 C83.6383789,52.4764982 83.2225586,56.1580826 83.2225586,56.1580826 L20.8225586,56.1580826 C20.8225586,56.1580826 20.3616211,52.5423418 20.3616211,50.635706 C20.3616211,48.855099 20.8225586,45.0963542 20.8225586,45.0963542 L83.2225586,45.0963542 L83.2225586,45.0963542 Z" id="Rectangle-1022" stroke="#F58426" sketch:type="MSShapeGroup"/>
                <circle id="Oval-321" stroke="#979797" sketch:type="MSShapeGroup" cx="52" cy="51" r="16"/>
            </g>
        </g>
    </g>
</svg></svg>
